<svg xmlns="http://www.w3.org/2000/svg"
    viewBox="0 0 800 600"
    preserveAspectRatio="xMidYMid meet"
    width="800"
    height="600"
>
  <defs>
    <path id="star" fill="#ffffff" d="M0,5 A5,5,90,0,1,5,0 A5,5,90,0,1,0,-5 A5,5,90,0,1,-5,0 A5,5,90,0,1,0,5 Z"/>
    <pattern id="starry" x="0" y="0" width="100" height="100" patternUnits="userSpaceOnUse">
      <use href="#star" transform="translate(5, 5) scale(1)"/>
      <use href="#star" transform="translate(40, 25) scale(0.7)"/>
      <use href="#star" transform="translate(10, 80) scale(0.5)"/>
      <use href="#star" transform="translate(27, 64) scale(0.8)"/>
      <use href="#star" transform="translate(15, 46) scale(0.6)"/>
      <use href="#star" transform="translate(70, 33) scale(0.8)"/>
      <use href="#star" transform="translate(65, 58) scale(0.5)"/>
      <use href="#star" transform="translate(58, 72) scale(0.7)"/>
      <use href="#star" transform="translate(40, 80) scale(0.4)"/>
      <use href="#star" transform="translate(35, 95) scale(0.6)"/>
      <use href="#star" transform="translate(57, 90) scale(0.8)"/>
      <use href="#star" transform="translate(87, 93) scale(0.7)"/>
      <use href="#star" transform="translate(90, 70) scale(0.5)"/>
      <use href="#star" transform="translate(82, 46) scale(0.6)"/>
      <use href="#star" transform="translate(92, 25) scale(0.4)"/>
      <use href="#star" transform="translate(45, 50) scale(1)"/>
      <use href="#star" transform="translate(20, 10) scale(0.4)"/>
      <use href="#star" transform="translate(53, 15) scale(0.6)"/>
      <use href="#star" transform="translate(70, 5) scale(0.3)"/>
    </pattern>

    <linearGradient id="nightSky" x1="0%" y1="0%" x2="0%" y2="100%">
      <stop offset="0%" style="stop-color:#000033; stop-opacity:1" />
      <stop offset="100%" style="stop-color:#000000; stop-opacity:1" />
    </linearGradient>

    <linearGradient id="fieldGradient" x1="0%" y1="50%" x2="30%" y2="100%">
      <stop offset="0%" stop-color="#01291a" />
      <stop offset="100%" stop-color="#0e3a0e" />
    </linearGradient>

    <g id="windmill">
      <!-- Windmill base/tower using your custom path, shifted so the top is at y=60 -->
      <path
        d="M10,190 L5,70 A5,5,180,0,0,-5,70 L-10,190 A10,10,180,0,0,10,190 Z"
        fill="#535353"
      />
      <g>
        <animateTransform
          attributeName="transform"
          type="rotate"
          from="0 0 60"
          to="-360 0 60"
          dur="10s"
          repeatCount="indefinite"
          additive="sum"
        />
        <g>
          <path id="windmill-blade" d="M5,50 L2,2 A2,2,180,0,0,-2,2 L-5,50 A5,5,180,0,0,5,50 Z"
            fill="#7e7e7e"/>
          <use href="#windmill-blade" transform="rotate(120 0 60)"/>
          <use href="#windmill-blade" transform="rotate(240 0 60)"/>
        </g>
      </g>
    </g>
  </defs>

  <rect x="0" y="0" width="800" height="600" fill="url(#nightSky)"/>
  <g>
    <animateTransform
      attributeName="transform"
      type="rotate"
      from="0 400 600"
      to="360 400 600"
      dur="240s"
      repeatCount="indefinite"
    />
    <circle cx="400" cy="600" r="1000" fill="url(#starry)" opacity="0.7"/>
  </g>
  <g>
    <path
      d="M0,500 Q200,550 400,520 Q600,490 800,540 L800,600 L0,600 Z"
      fill="url(#fieldGradient)"
    />
  </g>
  <use href="#windmill" transform="translate(650,380) scale(1)"/>
  <use href="#windmill" transform="translate(430,420) scale(0.6)"/>
  <use href="#windmill" transform="translate(300,420) scale(0.8)"/>
  <use href="#windmill" transform="translate(60,430) scale(0.5)"/>
</svg>